<svg xmlns="http://www.w3.org/2000/svg" viewBox="0 0 480 480" fill="#C7133E"><path d="M144 224h-32v-32h32v32zm64-32h-32v32h32v-32zm-32-32h-32v32h32v-32zm64 0h-32v32h32v-32zm-32-32h-32v32h32v-32zm64 0h-32v32h32v-32zm-32-32h-32v32h32V96zm64 0h-32v32h32V96zm-32-32h-32v32h32V64zm64 0h-32v32h32V64zm-32-32h-32v32h32V32zm64 0h-32v32h32V32zM336 0h-32v32h32V0zm64 0h-32v32h32V0zm-32 480h32v-32h-32v32zm-64 0h32v-32h-32v32zm32-32h32v-32h-32v32zm-64 0h32v-32h-32v32zm32-32h32v-32h-32v32zm-64 0h32v-32h-32v32zm32-32h32v-32h-32v32zm-64 0h32v-32h-32v32zm32-32h32v-32h-32v32zm-64 0h32v-32h-32v32zm32-32h32v-32h-32v32zm-64 0h32v-32h-32v32zm32-32h32v-32h-32v32zm-64 0h32v-32h-32v32zm0-64H80v32h32v-32zm64 0h-32v32h32v-32z"/></svg>